<svg width="1107" height="326" viewBox="0 0 1107 326" fill="none" xmlns="http://www.w3.org/2000/svg">
<path d="M0 320.244V5.98588H289.177C349.084 5.98588 397.36 12.8159 434.005 26.476C470.65 39.9826 488.973 58.8611 488.973 83.1116C488.973 96.4647 483.556 107.899 472.722 117.415C462.206 126.931 448.185 134.529 430.659 140.208C413.133 145.887 393.855 149.724 372.824 151.719V155.172C397.36 155.94 420.781 159.24 443.087 165.072C465.711 170.751 484.193 179.116 498.532 190.167C512.872 201.064 520.041 214.724 520.041 231.147C520.041 250.025 510.004 266.141 489.929 279.494C469.854 292.694 442.609 302.824 408.194 309.884C374.098 316.791 335.86 320.244 293.479 320.244H0ZM155.821 59.6285V133.761H231.82C256.038 133.761 275.794 132.226 291.089 129.157C306.385 125.934 317.697 121.559 325.026 116.034C332.355 110.355 336.019 103.755 336.019 96.2345C336.019 85.0301 328.372 76.1281 313.076 69.5283C298.1 62.9284 276.75 59.6285 249.027 59.6285H155.821ZM155.821 182.569V266.602H240.902C283.282 266.602 313.873 262.918 332.674 255.551C351.474 248.03 360.874 237.823 360.874 224.931C360.874 216.336 356.891 208.892 348.925 202.599C341.277 196.153 329.646 191.241 314.032 187.864C298.737 184.334 279.618 182.569 256.675 182.569H155.821Z" fill="#2B34FB"/>
<path d="M575.965 228.384H725.573C726.21 233.449 729.237 238.361 734.654 243.119C740.071 247.877 747.719 252.174 757.597 256.011C767.794 259.848 780.062 262.841 794.402 264.99C809.06 267.139 826.108 268.213 845.545 268.213C869.444 268.213 889.201 266.678 904.815 263.609C920.747 260.539 932.697 256.318 940.663 250.946C948.63 245.421 952.613 239.128 952.613 232.068C952.613 222.245 944.328 214.724 927.758 209.506C911.506 204.287 887.448 200.066 855.583 196.843L763.333 187.174C731.149 184.104 701.992 179.116 675.863 172.209C649.733 165.149 628.861 155.556 613.247 143.431C597.633 131.306 589.826 116.111 589.826 97.846C589.826 76.9722 600.979 59.2448 623.285 44.6638C645.591 30.0829 675.863 19.032 714.101 11.5113C752.339 3.8371 795.676 0 844.111 0C896.689 0 941.619 4.29755 978.902 12.8927C1016.5 21.3343 1045.34 32.7688 1065.42 47.1963C1085.49 61.6238 1095.69 77.8164 1096.01 95.774H951.179C950.223 89.1742 945.762 82.9581 937.795 77.1257C929.829 71.2933 918.039 66.5353 902.425 62.8517C887.13 59.0146 867.692 57.096 844.111 57.096C812.883 57.096 788.666 60.3192 771.459 66.7655C754.57 73.0584 746.126 81.4233 746.126 91.8602C746.126 100.302 753.614 107.209 768.591 112.581C783.886 117.952 805.714 121.943 834.074 124.552L928.236 133.992C959.782 136.908 989.098 141.666 1016.18 148.266C1043.27 154.865 1065.1 164.305 1081.67 176.583C1098.56 188.709 1107 204.671 1107 224.47C1107 245.037 1096.48 262.918 1075.45 278.113C1054.42 293.308 1023.99 305.126 984.159 313.568C944.328 321.856 896.052 326 839.332 326C789.622 326 747.878 323.161 714.101 317.482C680.642 311.649 653.716 303.975 633.323 294.459C613.247 284.79 598.749 274.199 589.826 262.688C580.904 251.177 576.284 239.742 575.965 228.384Z" fill="#2B34FB"/>
<rect width="342" height="57" transform="translate(238 97)" fill="#04FCFE"/>
<path d="M271.042 143H266.777V129.383L256.066 111.008H260.964L268.863 125.141H269.003L276.902 111.008H281.753L271.042 129.359V143ZM299.594 124.812C299.594 122.453 299.211 120.484 298.445 118.906C297.695 117.328 296.672 116.148 295.375 115.367C294.094 114.57 292.641 114.172 291.016 114.172C289.406 114.172 287.945 114.57 286.633 115.367C285.336 116.148 284.313 117.328 283.563 118.906C282.813 120.484 282.438 122.453 282.438 124.812V129.477C282.438 131.836 282.813 133.781 283.563 135.312C284.313 136.844 285.336 137.984 286.633 138.734C287.945 139.469 289.406 139.836 291.016 139.836C292.641 139.836 294.094 139.469 295.375 138.734C296.672 137.984 297.695 136.844 298.445 135.312C299.211 133.781 299.594 131.836 299.594 129.477V124.812ZM303.93 129.477C303.93 132.492 303.391 135.062 302.313 137.188C301.25 139.297 299.742 140.906 297.789 142.016C295.852 143.109 293.578 143.656 290.969 143.656C288.359 143.656 286.086 143.109 284.148 142.016C282.227 140.906 280.734 139.297 279.672 137.188C278.625 135.062 278.102 132.492 278.102 129.477V124.836C278.102 121.805 278.633 119.211 279.695 117.055C280.773 114.883 282.281 113.227 284.219 112.086C286.156 110.93 288.438 110.352 291.063 110.352C293.672 110.352 295.938 110.93 297.859 112.086C299.781 113.227 301.273 114.883 302.336 117.055C303.398 119.211 303.93 121.805 303.93 124.836V129.477ZM317.294 139.812C319.7 139.812 321.622 139.086 323.059 137.633C324.497 136.18 325.216 134.227 325.216 131.773V111.008H329.505V132.336C329.505 134.539 329.02 136.5 328.052 138.219C327.083 139.922 325.684 141.258 323.856 142.227C322.028 143.18 319.841 143.656 317.294 143.656C314.747 143.656 312.559 143.18 310.731 142.227C308.903 141.258 307.505 139.922 306.536 138.219C305.567 136.5 305.083 134.539 305.083 132.336V111.008H309.348V131.773C309.348 134.242 310.067 136.203 311.505 137.656C312.958 139.094 314.888 139.812 317.294 139.812ZM339.175 134.328H343.464C343.542 135.078 343.761 135.797 344.12 136.484C344.48 137.156 344.98 137.75 345.62 138.266C346.277 138.766 347.066 139.164 347.988 139.461C348.925 139.758 350.003 139.906 351.222 139.906C352.691 139.906 353.956 139.688 355.019 139.25C356.097 138.797 356.933 138.156 357.527 137.328C358.12 136.5 358.417 135.516 358.417 134.375C358.417 133.078 357.995 132.039 357.152 131.258C356.308 130.461 354.995 129.844 353.214 129.406L347.659 127.953C346.378 127.625 345.159 127.125 344.003 126.453C342.847 125.781 341.909 124.875 341.191 123.734C340.472 122.594 340.113 121.188 340.113 119.516C340.113 117.516 340.636 115.828 341.683 114.453C342.73 113.078 344.105 112.039 345.808 111.336C347.511 110.617 349.331 110.258 351.269 110.258C353.144 110.258 354.925 110.594 356.613 111.266C358.3 111.922 359.675 112.93 360.738 114.289C361.816 115.633 362.378 117.336 362.425 119.398H358.183C358.089 118.398 357.769 117.492 357.222 116.68C356.691 115.867 355.917 115.219 354.902 114.734C353.902 114.25 352.667 114.008 351.198 114.008C349.245 114.008 347.636 114.461 346.37 115.367C345.105 116.273 344.472 117.555 344.472 119.211C344.472 120.336 344.839 121.297 345.573 122.094C346.308 122.891 347.441 123.484 348.972 123.875L354.433 125.305C356.073 125.727 357.519 126.289 358.769 126.992C360.019 127.695 361.003 128.617 361.722 129.758C362.441 130.883 362.8 132.312 362.8 134.047C362.8 136.156 362.261 137.93 361.183 139.367C360.12 140.789 358.683 141.859 356.87 142.578C355.073 143.297 353.042 143.656 350.777 143.656C348.652 143.656 346.847 143.375 345.363 142.812C343.894 142.234 342.706 141.484 341.8 140.562C340.909 139.641 340.253 138.633 339.831 137.539C339.409 136.445 339.191 135.375 339.175 134.328ZM388.398 143H384.086V128.352H368.242V143H363.93V111.008H368.242V124.555H384.086V111.008H388.398V143ZM395.505 143H391.192V111.008H395.505V143ZM410.064 111.008C412.127 111.008 413.923 111.438 415.455 112.297C416.986 113.141 418.173 114.312 419.017 115.812C419.877 117.312 420.306 119.055 420.306 121.039C420.306 123.023 419.877 124.773 419.017 126.289C418.173 127.789 416.986 128.961 415.455 129.805C413.923 130.633 412.119 131.047 410.041 131.047H402.611V143H398.298V111.008H410.064ZM415.877 121.039C415.877 119.039 415.33 117.5 414.236 116.422C413.158 115.328 411.634 114.781 409.666 114.781H402.611V127.297H407.345C409.142 127.297 410.673 127.141 411.939 126.828C413.22 126.5 414.197 125.883 414.869 124.977C415.541 124.07 415.877 122.758 415.877 121.039ZM430.164 143V111.008H442.305C445.039 111.008 447.211 111.711 448.82 113.117C450.43 114.523 451.234 116.445 451.234 118.883C451.234 120.086 451.031 121.164 450.625 122.117C450.219 123.055 449.633 123.844 448.867 124.484C448.102 125.125 447.172 125.609 446.078 125.938V126.125C447.5 126.312 448.727 126.742 449.758 127.414C450.805 128.086 451.609 128.984 452.172 130.109C452.75 131.219 453.039 132.523 453.039 134.023C453.039 135.898 452.586 137.508 451.68 138.852C450.773 140.18 449.484 141.203 447.812 141.922C446.156 142.641 444.18 143 441.883 143H430.164ZM434.477 114.711V124.742H439.305C441.055 124.742 442.484 124.562 443.594 124.203C444.719 123.828 445.547 123.266 446.078 122.516C446.625 121.75 446.898 120.781 446.898 119.609C446.898 118.062 446.43 116.859 445.492 116C444.555 115.141 443.242 114.711 441.555 114.711H434.477ZM434.477 128.352V139.297H439.938C443.031 139.297 445.25 138.883 446.594 138.055C447.953 137.211 448.633 135.867 448.633 134.023C448.633 132.82 448.375 131.797 447.859 130.953C447.344 130.109 446.586 129.469 445.586 129.031C444.602 128.578 443.406 128.352 442 128.352H434.477ZM455.341 143H450.864L462.184 111.008H466.684L478.005 143H473.458L470.294 133.531H458.505L455.341 143ZM464.481 115.953H464.341L459.63 130.086H469.169L464.481 115.953ZM477.564 111.008H487.97C491.08 111.008 493.673 111.609 495.752 112.812C497.845 114.016 499.416 115.805 500.462 118.18C501.525 120.555 502.056 123.484 502.056 126.969C502.056 130.453 501.525 133.391 500.462 135.781C499.416 138.156 497.845 139.953 495.752 141.172C493.673 142.391 491.08 143 487.97 143H477.564V111.008ZM481.877 114.805V139.203H487.666C489.291 139.203 490.72 138.961 491.955 138.477C493.205 137.977 494.244 137.227 495.072 136.227C495.9 135.227 496.525 133.961 496.947 132.43C497.369 130.898 497.58 129.086 497.58 126.992C497.58 124.32 497.22 122.086 496.502 120.289C495.798 118.477 494.712 117.109 493.244 116.188C491.775 115.266 489.916 114.805 487.666 114.805H481.877ZM524.594 139.812C527 139.812 528.922 139.086 530.359 137.633C531.797 136.18 532.516 134.227 532.516 131.773V111.008H536.805V132.336C536.805 134.539 536.32 136.5 535.352 138.219C534.383 139.922 532.984 141.258 531.156 142.227C529.328 143.18 527.141 143.656 524.594 143.656C522.047 143.656 519.859 143.18 518.031 142.227C516.203 141.258 514.805 139.922 513.836 138.219C512.867 136.5 512.383 134.539 512.383 132.336V111.008H516.648V131.773C516.648 134.242 517.367 136.203 518.805 137.656C520.258 139.094 522.188 139.812 524.594 139.812ZM561.794 111.008L551.223 127.156L561.583 143H556.427L548.552 130.484H548.317L540.395 143H535.544L545.95 126.875L535.684 111.008H540.864L548.786 123.57H548.997L556.848 111.008H561.794Z" fill="#2B34FB"/>
<rect width="451" height="57" transform="translate(418 172)" fill="#04FCFE"/>
<path d="M449.081 218H445.191L436.425 186.008H441.183L447.253 210.805H447.37L453.652 186.008H457.941L464.198 210.805H464.339L470.409 186.008H475.167L466.378 218H462.511L455.878 193.203H455.738L449.081 218ZM493.828 214.203V218H474.492V186.008H493.828V189.805H478.805V199.836H492.984V203.539H478.805V214.203H493.828ZM502.772 209.328H507.061C507.139 210.078 507.358 210.797 507.717 211.484C508.077 212.156 508.577 212.75 509.217 213.266C509.873 213.766 510.663 214.164 511.584 214.461C512.522 214.758 513.6 214.906 514.819 214.906C516.288 214.906 517.553 214.688 518.616 214.25C519.694 213.797 520.53 213.156 521.123 212.328C521.717 211.5 522.014 210.516 522.014 209.375C522.014 208.078 521.592 207.039 520.748 206.258C519.905 205.461 518.592 204.844 516.811 204.406L511.256 202.953C509.975 202.625 508.756 202.125 507.6 201.453C506.444 200.781 505.506 199.875 504.788 198.734C504.069 197.594 503.709 196.188 503.709 194.516C503.709 192.516 504.233 190.828 505.28 189.453C506.327 188.078 507.702 187.039 509.405 186.336C511.108 185.617 512.928 185.258 514.866 185.258C516.741 185.258 518.522 185.594 520.209 186.266C521.897 186.922 523.272 187.93 524.334 189.289C525.413 190.633 525.975 192.336 526.022 194.398H521.78C521.686 193.398 521.366 192.492 520.819 191.68C520.288 190.867 519.514 190.219 518.498 189.734C517.498 189.25 516.264 189.008 514.795 189.008C512.842 189.008 511.233 189.461 509.967 190.367C508.702 191.273 508.069 192.555 508.069 194.211C508.069 195.336 508.436 196.297 509.17 197.094C509.905 197.891 511.038 198.484 512.569 198.875L518.03 200.305C519.67 200.727 521.116 201.289 522.366 201.992C523.616 202.695 524.6 203.617 525.319 204.758C526.038 205.883 526.397 207.312 526.397 209.047C526.397 211.156 525.858 212.93 524.78 214.367C523.717 215.789 522.28 216.859 520.467 217.578C518.67 218.297 516.639 218.656 514.373 218.656C512.248 218.656 510.444 218.375 508.959 217.812C507.491 217.234 506.303 216.484 505.397 215.562C504.506 214.641 503.85 213.633 503.428 212.539C503.006 211.445 502.788 210.375 502.772 209.328ZM551.995 218H547.683V203.352H531.839V218H527.527V186.008H531.839V199.555H547.683V186.008H551.995V218ZM559.102 218H554.789V186.008H559.102V218ZM573.661 186.008C575.723 186.008 577.52 186.438 579.052 187.297C580.583 188.141 581.77 189.312 582.614 190.812C583.473 192.312 583.903 194.055 583.903 196.039C583.903 198.023 583.473 199.773 582.614 201.289C581.77 202.789 580.583 203.961 579.052 204.805C577.52 205.633 575.716 206.047 573.638 206.047H566.208V218H561.895V186.008H573.661ZM579.473 196.039C579.473 194.039 578.927 192.5 577.833 191.422C576.755 190.328 575.231 189.781 573.263 189.781H566.208V202.297H570.942C572.739 202.297 574.27 202.141 575.536 201.828C576.817 201.5 577.794 200.883 578.466 199.977C579.138 199.07 579.473 197.758 579.473 196.039ZM602.925 218H599.034L590.269 186.008H595.027L601.097 210.805H601.214L607.495 186.008H611.784L618.042 210.805H618.183L624.253 186.008H629.011L620.222 218H616.355L609.722 193.203H609.581L602.925 218ZM648.562 199.812C648.562 197.453 648.18 195.484 647.414 193.906C646.664 192.328 645.641 191.148 644.344 190.367C643.062 189.57 641.609 189.172 639.984 189.172C638.375 189.172 636.914 189.57 635.602 190.367C634.305 191.148 633.281 192.328 632.531 193.906C631.781 195.484 631.406 197.453 631.406 199.812V204.477C631.406 206.836 631.781 208.781 632.531 210.312C633.281 211.844 634.305 212.984 635.602 213.734C636.914 214.469 638.375 214.836 639.984 214.836C641.609 214.836 643.062 214.469 644.344 213.734C645.641 212.984 646.664 211.844 647.414 210.312C648.18 208.781 648.562 206.836 648.562 204.477V199.812ZM652.898 204.477C652.898 207.492 652.359 210.062 651.281 212.188C650.219 214.297 648.711 215.906 646.758 217.016C644.82 218.109 642.547 218.656 639.938 218.656C637.328 218.656 635.055 218.109 633.117 217.016C631.195 215.906 629.703 214.297 628.641 212.188C627.594 210.062 627.07 207.492 627.07 204.477V199.836C627.07 196.805 627.602 194.211 628.664 192.055C629.742 189.883 631.25 188.227 633.188 187.086C635.125 185.93 637.406 185.352 640.031 185.352C642.641 185.352 644.906 185.93 646.828 187.086C648.75 188.227 650.242 189.883 651.305 192.055C652.367 194.211 652.898 196.805 652.898 199.836V204.477ZM666.122 186.008C668.497 186.008 670.45 186.453 671.981 187.344C673.512 188.234 674.645 189.414 675.38 190.883C676.114 192.336 676.481 193.906 676.481 195.594C676.481 197.359 676.177 198.844 675.567 200.047C674.973 201.234 674.216 202.195 673.294 202.93C672.387 203.664 671.473 204.195 670.552 204.523L677.067 218H672.145L666.262 205.344H658.716V218H654.427V186.008H666.122ZM658.716 201.641H665.372C667.559 201.641 669.216 201.141 670.341 200.141C671.466 199.125 672.028 197.688 672.028 195.828C672.028 193.812 671.434 192.297 670.247 191.281C669.075 190.266 667.505 189.758 665.536 189.758H658.716V201.641ZM675.806 209.328H680.095C680.173 210.078 680.392 210.797 680.752 211.484C681.111 212.156 681.611 212.75 682.252 213.266C682.908 213.766 683.697 214.164 684.619 214.461C685.556 214.758 686.634 214.906 687.853 214.906C689.322 214.906 690.587 214.688 691.65 214.25C692.728 213.797 693.564 213.156 694.158 212.328C694.752 211.5 695.048 210.516 695.048 209.375C695.048 208.078 694.627 207.039 693.783 206.258C692.939 205.461 691.627 204.844 689.845 204.406L684.291 202.953C683.009 202.625 681.791 202.125 680.634 201.453C679.478 200.781 678.541 199.875 677.822 198.734C677.103 197.594 676.744 196.188 676.744 194.516C676.744 192.516 677.267 190.828 678.314 189.453C679.361 188.078 680.736 187.039 682.439 186.336C684.142 185.617 685.962 185.258 687.9 185.258C689.775 185.258 691.556 185.594 693.244 186.266C694.931 186.922 696.306 187.93 697.369 189.289C698.447 190.633 699.009 192.336 699.056 194.398H694.814C694.72 193.398 694.4 192.492 693.853 191.68C693.322 190.867 692.548 190.219 691.533 189.734C690.533 189.25 689.298 189.008 687.83 189.008C685.877 189.008 684.267 189.461 683.002 190.367C681.736 191.273 681.103 192.555 681.103 194.211C681.103 195.336 681.47 196.297 682.205 197.094C682.939 197.891 684.072 198.484 685.603 198.875L691.064 200.305C692.705 200.727 694.15 201.289 695.4 201.992C696.65 202.695 697.634 203.617 698.353 204.758C699.072 205.883 699.431 207.312 699.431 209.047C699.431 211.156 698.892 212.93 697.814 214.367C696.752 215.789 695.314 216.859 693.502 217.578C691.705 218.297 689.673 218.656 687.408 218.656C685.283 218.656 683.478 218.375 681.994 217.812C680.525 217.234 679.337 216.484 678.431 215.562C677.541 214.641 676.884 213.633 676.462 212.539C676.041 211.445 675.822 210.375 675.806 209.328ZM719.897 214.203V218H700.561V186.008H719.897V189.805H704.873V199.836H719.053V203.539H704.873V214.203H719.897ZM742.973 186.008C745.036 186.008 746.833 186.438 748.364 187.297C749.895 188.141 751.083 189.312 751.927 190.812C752.786 192.312 753.216 194.055 753.216 196.039C753.216 198.023 752.786 199.773 751.927 201.289C751.083 202.789 749.895 203.961 748.364 204.805C746.833 205.633 745.028 206.047 742.95 206.047H735.52V218H731.208V186.008H742.973ZM748.786 196.039C748.786 194.039 748.239 192.5 747.145 191.422C746.067 190.328 744.544 189.781 742.575 189.781H735.52V202.297H740.255C742.052 202.297 743.583 202.141 744.848 201.828C746.13 201.5 747.106 200.883 747.778 199.977C748.45 199.07 748.786 197.758 748.786 196.039ZM765.15 186.008C767.525 186.008 769.478 186.453 771.009 187.344C772.541 188.234 773.673 189.414 774.408 190.883C775.142 192.336 775.509 193.906 775.509 195.594C775.509 197.359 775.205 198.844 774.595 200.047C774.002 201.234 773.244 202.195 772.322 202.93C771.416 203.664 770.502 204.195 769.58 204.523L776.095 218H771.173L765.291 205.344H757.744V218H753.455V186.008H765.15ZM757.744 201.641H764.4C766.588 201.641 768.244 201.141 769.369 200.141C770.494 199.125 771.056 197.688 771.056 195.828C771.056 193.812 770.463 192.297 769.275 191.281C768.103 190.266 766.533 189.758 764.564 189.758H757.744V201.641ZM781.514 218H777.202V186.008H781.514V218ZM782.456 218V215L799.425 189.922V189.805H783.042V186.008H804.745V188.961L787.894 214.086V214.203H805.144V218H782.456ZM825.797 214.203V218H806.461V186.008H825.797V189.805H810.773V199.836H824.953V203.539H810.773V214.203H825.797ZM825.122 209.328H829.411C829.489 210.078 829.708 210.797 830.067 211.484C830.427 212.156 830.927 212.75 831.567 213.266C832.223 213.766 833.013 214.164 833.934 214.461C834.872 214.758 835.95 214.906 837.169 214.906C838.638 214.906 839.903 214.688 840.966 214.25C842.044 213.797 842.88 213.156 843.473 212.328C844.067 211.5 844.364 210.516 844.364 209.375C844.364 208.078 843.942 207.039 843.098 206.258C842.255 205.461 840.942 204.844 839.161 204.406L833.606 202.953C832.325 202.625 831.106 202.125 829.95 201.453C828.794 200.781 827.856 199.875 827.138 198.734C826.419 197.594 826.059 196.188 826.059 194.516C826.059 192.516 826.583 190.828 827.63 189.453C828.677 188.078 830.052 187.039 831.755 186.336C833.458 185.617 835.278 185.258 837.216 185.258C839.091 185.258 840.872 185.594 842.559 186.266C844.247 186.922 845.622 187.93 846.684 189.289C847.763 190.633 848.325 192.336 848.372 194.398H844.13C844.036 193.398 843.716 192.492 843.169 191.68C842.638 190.867 841.864 190.219 840.848 189.734C839.848 189.25 838.614 189.008 837.145 189.008C835.192 189.008 833.583 189.461 832.317 190.367C831.052 191.273 830.419 192.555 830.419 194.211C830.419 195.336 830.786 196.297 831.52 197.094C832.255 197.891 833.388 198.484 834.919 198.875L840.38 200.305C842.02 200.727 843.466 201.289 844.716 201.992C845.966 202.695 846.95 203.617 847.669 204.758C848.388 205.883 848.747 207.312 848.747 209.047C848.747 211.156 848.208 212.93 847.13 214.367C846.067 215.789 844.63 216.859 842.817 217.578C841.02 218.297 838.989 218.656 836.723 218.656C834.598 218.656 832.794 218.375 831.309 217.812C829.841 217.234 828.653 216.484 827.747 215.562C826.856 214.641 826.2 213.633 825.778 212.539C825.356 211.445 825.138 210.375 825.122 209.328Z" fill="#2B34FB"/>
</svg>
